<svg width="291" height="190" viewBox="0 0 291 190" fill="none" xmlns="http://www.w3.org/2000/svg">
<rect width="291" height="190" fill="#F3F3F3"/>
<rect x="93.2495" y="57.5087" width="105.246" height="74.2489" fill="#F3F3F3"/>
<path d="M195.087 134.608H95.9996C93.2906 134.608 91.0869 132.404 91.0869 129.695V60.258C91.0869 57.5498 93.2906 55.3461 95.9996 55.3461H195.087C197.796 55.3461 200 57.5498 200 60.258V129.695C200 132.404 197.796 134.608 195.087 134.608ZM95.9996 58.4674C95.012 58.4674 94.2083 59.2712 94.2083 60.2588V129.696C94.2083 130.683 95.012 131.487 95.9996 131.487H195.087C196.075 131.487 196.879 130.683 196.879 129.696V60.2588C196.879 59.2712 196.075 58.4674 195.087 58.4674H95.9996Z" fill="#228BE6"/>
<path d="M141.509 91.5097C134.999 91.5097 129.703 86.2135 129.703 79.7034C129.703 73.1933 134.999 67.8971 141.509 67.8971C148.019 67.8971 153.315 73.1933 153.315 79.7034C153.315 86.2135 148.019 91.5097 141.509 91.5097ZM141.509 71.0177C136.72 71.0177 132.824 74.914 132.824 79.7027C132.824 84.4921 136.72 88.3876 141.509 88.3876C146.298 88.3876 150.194 84.4914 150.194 79.7027C150.195 74.914 146.298 71.0177 141.509 71.0177Z" fill="#228BE6"/>
<path d="M167.497 134.406C167.098 134.406 166.698 134.254 166.393 133.949L135.84 103.396C131.791 99.3469 125.204 99.3476 121.154 103.396L93.7514 130.799C93.1422 131.409 92.1532 131.409 91.5448 130.799C90.9349 130.189 90.9349 129.201 91.5448 128.592L118.948 101.189C124.213 95.9235 132.78 95.9235 138.047 101.189L168.6 131.742C169.21 132.352 169.21 133.34 168.6 133.949C168.296 134.254 167.896 134.406 167.497 134.406Z" fill="#228BE6"/>
<path d="M149.089 115.999C148.689 115.999 148.29 115.847 147.985 115.542C147.375 114.932 147.375 113.944 147.985 113.335L170.616 90.7045C175.883 85.4386 184.45 85.4393 189.715 90.7045L199.301 100.29C199.91 100.899 199.91 101.887 199.301 102.496C198.691 103.106 197.702 103.106 197.094 102.496L187.509 92.9111C183.46 88.8627 176.872 88.862 172.823 92.9111L150.192 115.542C149.888 115.846 149.488 115.999 149.089 115.999Z" fill="#228BE6"/>
</svg>
