<svg width="134" height="150" viewBox="0 0 134 150" fill="none" xmlns="http://www.w3.org/2000/svg">
<path fill-rule="evenodd" clip-rule="evenodd" d="M77.3441 56.8515C81.3313 55.108 86.063 53.5586 90.9819 53.5724C97.6691 53.5915 104.624 55.6179 109.868 61.1423C115.085 66.6388 117.88 74.8332 117.88 85.7158C117.88 112.596 112.081 132.724 102.407 145.405L98.1203 142.165L102.41 145.401C102.409 145.402 102.408 145.403 102.407 145.405C99.3195 149.456 94.441 150.345 90.625 149.894C86.7822 149.439 82.7054 147.536 80.0755 144.211L84.303 140.895L80.0723 144.207C80.0734 144.209 80.0744 144.21 80.0755 144.211C77.311 140.72 74.8229 134.969 72.4361 127.689C72.4505 127.725 72.4647 127.762 72.4787 127.798L77.5101 125.895L72.3915 127.552C72.4063 127.598 72.4212 127.643 72.4361 127.689C71.8721 126.253 71.0359 124.923 70.1888 124.03C69.8462 123.669 69.5841 123.46 69.4096 123.341C69.5786 123.224 69.6657 123.194 69.6652 123.192C69.6647 123.191 69.5784 123.217 69.4008 123.216C69.2367 123.215 69.1566 123.192 69.1559 123.194C69.1551 123.197 69.2418 123.227 69.4096 123.341C69.2441 123.456 68.9999 123.654 68.6824 123.99C67.8491 124.872 67.014 126.209 66.4374 127.685C66.4519 127.641 66.4664 127.596 66.4809 127.552L61.3622 125.895L66.3959 127.792C66.4096 127.756 66.4235 127.721 66.4374 127.685C64.051 134.965 61.5624 140.724 58.7968 144.217L58.7958 144.218C56.1657 147.537 52.0893 149.438 48.2473 149.892C44.4338 150.343 39.5539 149.457 36.4651 145.405L40.752 142.165L36.4623 145.401C36.4632 145.402 36.4642 145.403 36.4651 145.405C26.7911 132.724 20.9923 112.591 20.9923 85.7158C20.9923 74.8103 23.7709 66.6015 28.9879 61.1029C34.2355 55.572 41.2015 53.5697 47.9056 53.5724V58.9296L47.9081 53.5724C52.8028 53.5729 57.5358 55.1243 61.5235 56.8635C64.3677 58.1038 67.1084 59.5705 69.4347 60.8463C71.763 59.5665 74.505 58.0928 77.3441 56.8515ZM81.2435 66.8517L87.9913 70.2096C90.6502 71.5327 91.728 74.7507 90.3985 77.397C89.0691 80.0434 85.8359 81.1161 83.1769 79.7929L67.029 71.7571C66.9715 71.7285 66.9145 71.6989 66.8581 71.6682C66.2754 71.3518 65.6888 71.0291 65.097 70.7036C62.5832 69.3206 59.9778 67.8873 57.2029 66.6771C53.7781 65.1835 50.6372 64.2868 47.9056 64.2868H47.903C43.3043 64.2847 39.5061 65.6228 36.815 68.4592C34.0925 71.3285 31.7576 76.5155 31.7576 85.7158C31.7576 111.331 37.327 128.816 45.039 138.925L45.0418 138.929C45.0656 138.96 45.1444 139.06 45.438 139.156C45.7628 139.262 46.2872 139.334 46.9771 139.253C48.4685 139.076 49.7578 138.32 50.3418 137.585C51.844 135.688 53.8742 131.488 56.2435 124.238C56.2699 124.157 56.2982 124.077 56.3285 123.998C57.3226 121.385 58.8679 118.737 60.8403 116.65C62.7037 114.678 65.6661 112.477 69.4716 112.502C73.2283 112.527 76.1656 114.723 78.017 116.675C79.985 118.75 81.5447 121.381 82.5416 123.992C82.5727 124.073 82.6018 124.155 82.6288 124.238C84.9975 131.486 87.0278 135.681 88.5306 137.579L88.5338 137.583C89.1174 138.322 90.4054 139.078 91.8952 139.254C92.5842 139.335 93.1082 139.263 93.4331 139.157C93.7268 139.061 93.8063 138.961 93.8306 138.929L93.8334 138.925C101.545 128.816 107.115 111.336 107.115 85.7158C107.115 76.5623 104.775 71.3796 102.042 68.5001C99.3354 65.6486 95.5248 64.2999 90.9516 64.2868M81.2435 66.8517C81.3866 66.7875 81.5301 66.724 81.6742 66.661C85.084 65.17 88.2111 64.2792 90.9516 64.2868" fill="#343A40"/>
<path fill-rule="evenodd" clip-rule="evenodd" d="M66.3463 1.93186e-05C66.7397 0.0115193 75.2405 3.16614 85.2402 7.00628C95.2432 10.8041 108.079 15.711 113.745 17.8861C132.762 25.154 132.419 25.0156 133.291 26.5052C134.578 28.6961 134.304 29.2068 130.873 31.0594C129.114 32.0063 122.648 35.5493 116.575 38.9728L105.444 45.1127L105.231 57.5903L100.117 55.1795L99.879 42.3792L95.9277 40.9394C90.6868 39.0775 84.0914 37.6115 79.1153 37.2234C76.909 37.0367 74.3137 36.7965 73.3626 36.6856C67.4367 36.1434 56.6557 37.2014 49.1933 39.0356C45.4401 39.9737 38.4363 42.5529 37.6794 43.267C37.355 43.5734 36.6787 53.3503 36.8711 55.7152L31.624 58.8367V49.3232L23.1657 46.1266C18.4862 44.4092 14.4084 42.8798 14.1062 42.7417C13.6763 42.6011 13.5409 44.4528 13.3477 51.826L13.1479 61.0976L14.8037 62.4353C17.7301 64.9276 18.1638 66.5787 17.9503 74.7282C17.8485 78.6087 17.5863 82.0106 17.4062 82.2649C16.2823 83.7891 14.8865 84.0977 9.90361 83.9684C4.92082 83.839 3.54344 83.4581 2.50089 81.8778C1.95797 81.0871 2.46658 68.2859 3.08068 66.3596C3.41111 65.3326 4.49075 63.8504 5.60222 62.8005L7.51401 60.9945L8.0486 40.5994L5.12914 39.4882C1.39344 38.0967 -0.210148 36.4152 0.0219317 34.1775C0.243735 32.3281 -1.03212 33.0714 17.5487 23.8889C24.4451 20.4866 38.0634 13.7208 47.8602 8.8405C57.6571 3.96019 65.9563 -0.0101046 66.3463 1.93186e-05ZM12.064 67.7146C11.0682 66.006 9.81358 65.8869 8.73299 67.4122C8.10267 68.302 7.85024 69.6764 7.65962 73.641L7.35264 78.7247L12.6391 78.8617L12.7668 73.9895C12.873 69.9364 12.7689 68.941 12.064 67.7146ZM66.4467 6.08655C66.4033 6.08542 58.8467 9.85911 49.6632 14.4965C40.4809 19.0907 27.696 25.49 21.1951 28.6869C14.7378 31.8847 9.59267 34.6414 9.76221 34.7755C9.97434 34.9536 14.8252 36.8056 20.6227 38.9409C26.4201 41.0763 31.3589 42.8873 31.6166 42.9803C31.8743 43.0733 32.0178 42.5591 31.9982 41.6525C31.8736 39.794 32.4528 39.2048 35.7887 37.6518C50.6705 30.6599 71.3996 28.8683 89.5006 33.049C94.673 34.2189 103.047 37.3269 103.757 38.3377C104.175 38.9526 105.448 38.3387 113.984 33.5983C119.309 30.5868 123.624 28.0664 123.583 27.979C123.486 27.929 113.275 23.9551 100.919 19.2358C88.5135 14.4695 75.721 9.56338 72.4585 8.31367C69.24 7.06535 66.5355 6.04611 66.4467 6.08655Z" fill="#343A40"/>
</svg>
