<svg width="300" height="90" viewBox="0 0 300 90" fill="none" xmlns="http://www.w3.org/2000/svg">
<path fill-rule="evenodd" clip-rule="evenodd" d="M46.4771 38.8381C48.3217 38.0277 50.5108 37.3075 52.7865 37.3139C55.8802 37.3228 59.0978 38.2647 61.5236 40.8326C63.9372 43.3875 65.2304 47.1965 65.2304 52.2551C65.2304 64.7498 62.5477 74.1058 58.0722 80.0002L56.0889 78.4943L58.0735 79.9985C58.0731 79.999 58.0726 79.9996 58.0722 80.0002C56.6437 81.8834 54.3867 82.2965 52.6213 82.0867C50.8435 81.8755 48.9575 80.9911 47.7408 79.4455L49.6966 77.9041L47.7393 79.4436C47.7398 79.4443 47.7403 79.4449 47.7408 79.4455C46.4618 77.8227 45.3107 75.1494 44.2066 71.7653C44.2132 71.7822 44.2197 71.7992 44.2262 71.8163L46.554 70.9315L44.1859 71.7018C44.1928 71.723 44.1997 71.7441 44.2066 71.7653C43.9456 71.0981 43.5588 70.4797 43.1669 70.0646C43.0084 69.8967 42.8871 69.7996 42.8064 69.7445C42.8846 69.69 42.9249 69.6759 42.9246 69.6752C42.9244 69.6745 42.8845 69.6869 42.8023 69.6864C42.7264 69.6859 42.6893 69.6751 42.689 69.6762C42.6886 69.6773 42.7287 69.6915 42.8064 69.7445C42.7298 69.7979 42.6168 69.89 42.47 70.0462C42.0844 70.4561 41.6981 71.0777 41.4313 71.7635C41.438 71.7429 41.4447 71.7224 41.4514 71.7018L39.0834 70.9315L41.4121 71.8135C41.4185 71.7968 41.4249 71.7801 41.4313 71.7635C40.3273 75.1476 39.176 77.8246 37.8965 79.448L37.896 79.4486C36.6793 80.9915 34.7934 81.8749 33.016 82.0861C31.2517 82.2958 28.9941 81.884 27.5651 80.0002L29.5484 78.4943L27.5638 79.9985C27.5642 79.999 27.5647 79.9996 27.5651 80.0002C23.0896 74.1058 20.4069 64.7473 20.4069 52.2551C20.4069 47.1859 21.6923 43.3702 24.1059 40.8143C26.5336 38.2434 29.7564 37.3126 32.8579 37.3139V39.8041L32.8591 37.3139C35.1235 37.3141 37.3131 38.0352 39.158 38.8437C40.4738 39.4202 41.7418 40.102 42.818 40.695C43.8951 40.1001 45.1637 39.4151 46.4771 38.8381ZM48.2812 43.4865L51.4029 45.0473C52.633 45.6624 53.1316 47.1582 52.5166 48.3883C51.9015 49.6184 50.4057 50.117 49.1756 49.5019L41.705 45.7667C41.6784 45.7534 41.6521 45.7396 41.6259 45.7253C41.3564 45.5783 41.085 45.4283 40.8112 45.2769C39.6482 44.6341 38.4429 43.9679 37.1591 43.4053C35.5747 42.7111 34.1216 42.2943 32.8579 42.2943H32.8567C30.7291 42.2933 28.972 42.9152 27.727 44.2337C26.4675 45.5675 25.3873 47.9785 25.3873 52.2551C25.3873 64.1618 27.9638 72.2895 31.5317 76.9884L31.533 76.9901C31.544 77.0046 31.5805 77.0511 31.7163 77.0956C31.8665 77.1449 32.1091 77.1784 32.4283 77.1405C33.1183 77.0585 33.7148 76.7072 33.9849 76.3652C34.6799 75.4834 35.6192 73.5313 36.7153 70.1613C36.7275 70.1238 36.7406 70.0865 36.7546 70.0496C37.2145 68.8352 37.9294 67.6045 38.8419 66.6342C39.704 65.7175 41.0745 64.6945 42.835 64.7061C44.573 64.7177 45.9319 65.7384 46.7885 66.6457C47.6989 67.6102 48.4205 68.8334 48.8817 70.0468C48.8961 70.0847 48.9095 70.1228 48.922 70.1613C50.0179 73.5305 50.9572 75.4806 51.6524 76.3627L51.6539 76.3646C51.9239 76.7079 52.5198 77.0592 53.209 77.1411C53.5277 77.179 53.7702 77.1455 53.9205 77.0961C54.0563 77.0515 54.0931 77.0049 54.1044 76.9901L54.1056 76.9884C57.6735 72.2894 60.25 64.1642 60.25 52.2551C60.25 48.0003 59.1677 45.5912 57.9032 44.2527C56.6511 42.9272 54.8882 42.3004 52.7725 42.2943M48.2812 43.4865C48.3473 43.4567 48.4137 43.4271 48.4804 43.3978C50.0579 42.7048 51.5046 42.2907 52.7725 42.2943" fill="#1C7ED6"/>
<path fill-rule="evenodd" clip-rule="evenodd" d="M41.3892 12.4119C41.5712 12.4172 45.5039 13.8836 50.1301 15.6686C54.7579 17.4339 60.696 19.7148 63.3175 20.7258C72.1156 24.1042 71.9569 24.0398 72.36 24.7323C72.9553 25.7506 72.8287 25.988 71.2416 26.8492C70.4277 27.2893 67.4362 28.9362 64.6266 30.5276L59.4771 33.3816L59.3785 39.1815L57.0128 38.0609L56.9026 32.111L55.0746 31.4417C52.6499 30.5762 49.5987 29.8948 47.2966 29.7144C46.2758 29.6276 45.0752 29.516 44.6352 29.4644C41.8936 29.2124 36.906 29.7042 33.4536 30.5568C31.7173 30.9928 28.477 32.1917 28.1269 32.5236C27.9768 32.6661 27.6639 37.2106 27.753 38.3099L25.3254 39.7609V35.3387L21.4124 33.8529C19.2475 33.0546 17.3609 32.3437 17.2211 32.2795C17.0222 32.2141 16.9596 33.0748 16.8702 36.5021L16.7778 40.8118L17.5438 41.4336C18.8977 42.5921 19.0983 43.3596 18.9995 47.1477C18.9524 48.9515 18.8311 50.5328 18.7478 50.651C18.2278 51.3595 17.5821 51.5029 15.2769 51.4428C12.9716 51.3827 12.3344 51.2057 11.8521 50.4711C11.6009 50.1035 11.8362 44.1531 12.1203 43.2577C12.2732 42.7804 12.7727 42.0914 13.2869 41.6034L14.1713 40.7639L14.4187 31.2836L13.068 30.7671C11.3398 30.1203 10.5979 29.3387 10.7052 28.2986C10.8079 27.4389 10.2176 27.7844 18.8137 23.5161C22.0043 21.9346 28.3045 18.7897 32.8369 16.5212C37.3693 14.2527 41.2088 12.4072 41.3892 12.4119ZM16.2763 43.8876C15.8156 43.0934 15.2352 43.038 14.7353 43.747C14.4437 44.1606 14.3269 44.7995 14.2387 46.6424L14.0967 49.0054L16.5424 49.0691L16.6015 46.8043C16.6506 44.9203 16.6025 44.4577 16.2763 43.8876ZM41.4356 15.2411C41.4156 15.2405 37.9196 16.9947 33.671 19.1502C29.4229 21.2858 23.5082 24.2604 20.5007 25.7464C17.5133 27.2328 15.133 28.5142 15.2114 28.5765C15.3096 28.6593 17.5537 29.5202 20.2358 30.5127C22.918 31.5053 25.2028 32.3471 25.322 32.3904C25.4413 32.4336 25.5076 32.1946 25.4986 31.7732C25.4409 30.9093 25.7089 30.6354 27.2522 29.9135C34.137 26.6635 43.727 25.8307 52.1011 27.774C54.4941 28.3178 58.368 29.7625 58.6968 30.2324C58.8899 30.5182 59.4791 30.2328 63.4279 28.0294C65.8916 26.6295 67.8879 25.4579 67.8689 25.4173C67.8239 25.3941 63.1002 23.5469 57.3838 21.3532C51.6445 19.1377 45.7262 16.8572 44.2169 16.2763C42.7279 15.696 41.4767 15.2223 41.4356 15.2411Z" fill="#1C7ED6"/>
<path d="M281.627 50.7503C283.346 50.7503 284.863 51.0994 286.179 51.7976C287.521 52.469 288.569 53.3148 289.321 54.3352V51.1129H293.953V73.6695C293.953 75.7103 293.523 77.5229 292.664 79.1073C291.805 80.7185 290.556 81.9806 288.918 82.8936C287.307 83.8066 285.373 84.2631 283.118 84.2631C280.11 84.2631 277.613 83.5515 275.626 82.1282C273.638 80.7319 272.511 78.8253 272.242 76.4085H276.794C277.143 77.5632 277.881 78.4896 279.009 79.1878C280.164 79.9129 281.533 80.2754 283.118 80.2754C284.97 80.2754 286.461 79.7115 287.589 78.5836C288.743 77.4558 289.321 75.8178 289.321 73.6695V69.9638C288.542 71.011 287.481 71.8972 286.139 72.6222C284.823 73.3204 283.319 73.6695 281.627 73.6695C279.694 73.6695 277.921 73.1862 276.31 72.2194C274.726 71.2259 273.464 69.8564 272.524 68.1109C271.611 66.3386 271.155 64.338 271.155 62.1092C271.155 59.8804 271.611 57.9067 272.524 56.1881C273.464 54.4695 274.726 53.1403 276.31 52.2004C277.921 51.2337 279.694 50.7503 281.627 50.7503ZM289.321 62.1898C289.321 60.6592 288.998 59.3299 288.354 58.2021C287.736 57.0743 286.917 56.215 285.897 55.6242C284.876 55.0334 283.775 54.738 282.594 54.738C281.412 54.738 280.311 55.0334 279.291 55.6242C278.271 56.1881 277.438 57.034 276.794 58.1618C276.176 59.2628 275.867 60.5786 275.867 62.1092C275.867 63.6399 276.176 64.9825 276.794 66.1372C277.438 67.2919 278.271 68.178 279.291 68.7957C280.338 69.3864 281.439 69.6818 282.594 69.6818C283.775 69.6818 284.876 69.3864 285.897 68.7957C286.917 68.2049 287.736 67.3456 288.354 66.2178C288.998 65.0631 289.321 63.7204 289.321 62.1898Z" fill="#1C7ED6"/>
<path d="M256.626 73.6695C254.531 73.6695 252.638 73.1996 250.946 72.2597C249.255 71.293 247.925 69.9503 246.959 68.2317C245.992 66.4863 245.509 64.4723 245.509 62.1898C245.509 59.9341 246.005 57.9336 246.999 56.1881C247.992 54.4427 249.349 53.1 251.067 52.1601C252.786 51.2203 254.706 50.7503 256.827 50.7503C258.949 50.7503 260.869 51.2203 262.587 52.1601C264.306 53.1 265.662 54.4427 266.655 56.1881C267.649 57.9336 268.146 59.9341 268.146 62.1898C268.146 64.4455 267.636 66.446 266.615 68.1915C265.595 69.9369 264.198 71.293 262.426 72.2597C260.681 73.1996 258.747 73.6695 256.626 73.6695ZM256.626 69.6818C257.807 69.6818 258.908 69.3999 259.929 68.8359C260.976 68.272 261.822 67.4262 262.466 66.2983C263.111 65.1705 263.433 63.801 263.433 62.1898C263.433 60.5786 263.124 59.2225 262.507 58.1215C261.889 56.9937 261.07 56.1478 260.05 55.5839C259.029 55.02 257.928 54.738 256.747 54.738C255.565 54.738 254.464 55.02 253.444 55.5839C252.45 56.1478 251.658 56.9937 251.067 58.1215C250.476 59.2225 250.181 60.5786 250.181 62.1898C250.181 64.5797 250.785 66.4326 251.994 67.7484C253.229 69.0373 254.773 69.6818 256.626 69.6818Z" fill="#1C7ED6"/>
<path d="M233.693 69.6013H243.159V73.307H229.101V45.3126H233.693V69.6013Z" fill="#1C7ED6"/>
<path d="M213.162 73.6292C210.96 73.6292 208.973 73.1593 207.2 72.2194C205.455 71.2796 204.072 69.9369 203.052 68.1915C202.058 66.446 201.561 64.4052 201.561 62.0689C201.561 59.7596 202.071 57.7322 203.092 55.9867C204.112 54.2144 205.509 52.8583 207.281 51.9185C209.053 50.9786 211.04 50.5087 213.242 50.5087C215.444 50.5087 217.431 50.9786 219.204 51.9185C220.976 52.8583 222.372 54.2144 223.393 55.9867C224.413 57.7322 224.923 59.7596 224.923 62.0689C224.923 64.3783 224.4 66.4192 223.353 68.1915C222.332 69.9369 220.922 71.2796 219.123 72.2194C217.351 73.1593 215.364 73.6292 213.162 73.6292ZM213.162 67.6678C214.478 67.6678 215.592 67.1845 216.505 66.2178C217.445 65.251 217.915 63.8681 217.915 62.0689C217.915 60.2698 217.458 58.8869 216.545 57.9201C215.659 56.9534 214.558 56.4701 213.242 56.4701C211.9 56.4701 210.785 56.9534 209.899 57.9201C209.013 58.86 208.57 60.2429 208.57 62.0689C208.57 63.8681 209 65.251 209.859 66.2178C210.745 67.1845 211.846 67.6678 213.162 67.6678Z" fill="#1C7ED6"/>
<path d="M199.094 67.4664V73.307H195.59C193.092 73.307 191.146 72.7028 189.749 71.4944C188.353 70.2592 187.655 68.2586 187.655 65.4927V56.5506H184.916V50.8309H187.655V45.3529H194.542V50.8309H199.054V56.5506H194.542V65.5733C194.542 66.2446 194.704 66.728 195.026 67.0234C195.348 67.3187 195.885 67.4664 196.637 67.4664H199.094Z" fill="#1C7ED6"/>
<path d="M173.121 50.5892C175.752 50.5892 177.847 51.4485 179.404 53.1671C180.989 54.8589 181.781 57.1951 181.781 60.1758V73.307H174.933V61.1022C174.933 59.5985 174.544 58.4303 173.765 57.5979C172.986 56.7655 171.939 56.3492 170.623 56.3492C169.307 56.3492 168.26 56.7655 167.481 57.5979C166.703 58.4303 166.313 59.5985 166.313 61.1022V73.307H159.425V50.8309H166.313V53.8116C167.011 52.818 167.951 52.0393 169.133 51.4754C170.314 50.8846 171.644 50.5892 173.121 50.5892Z" fill="#1C7ED6"/>
<path d="M144.01 73.6292C141.808 73.6292 139.821 73.1593 138.048 72.2194C136.303 71.2796 134.92 69.9369 133.899 68.1915C132.906 66.446 132.409 64.4052 132.409 62.0689C132.409 59.7596 132.919 57.7322 133.94 55.9867C134.96 54.2144 136.357 52.8583 138.129 51.9185C139.901 50.9786 141.888 50.5087 144.09 50.5087C146.292 50.5087 148.279 50.9786 150.052 51.9185C151.824 52.8583 153.22 54.2144 154.241 55.9867C155.261 57.7322 155.771 59.7596 155.771 62.0689C155.771 64.3783 155.248 66.4192 154.2 68.1915C153.18 69.9369 151.77 71.2796 149.971 72.2194C148.199 73.1593 146.212 73.6292 144.01 73.6292ZM144.01 67.6678C145.325 67.6678 146.44 67.1845 147.353 66.2178C148.293 65.251 148.763 63.8681 148.763 62.0689C148.763 60.2698 148.306 58.8869 147.393 57.9201C146.507 56.9534 145.406 56.4701 144.09 56.4701C142.748 56.4701 141.633 56.9534 140.747 57.9201C139.861 58.86 139.418 60.2429 139.418 62.0689C139.418 63.8681 139.847 65.251 140.707 66.2178C141.593 67.1845 142.694 67.6678 144.01 67.6678Z" fill="#1C7ED6"/>
<path d="M105.071 62.0287C105.071 59.7193 105.5 57.6919 106.36 55.9464C107.246 54.201 108.441 52.8583 109.945 51.9185C111.448 50.9786 113.127 50.5087 114.98 50.5087C116.457 50.5087 117.799 50.8175 119.008 51.4351C120.243 52.0527 121.21 52.8852 121.908 53.9324V43.5H128.796V73.307H121.908V70.0846C121.263 71.1587 120.337 72.018 119.128 72.6625C117.947 73.307 116.564 73.6292 114.98 73.6292C113.127 73.6292 111.448 73.1593 109.945 72.2194C108.441 71.2527 107.246 69.8966 106.36 68.1512C105.5 66.3789 105.071 64.338 105.071 62.0287ZM121.908 62.0689C121.908 60.3503 121.424 58.9943 120.458 58.0007C119.518 57.0071 118.363 56.5103 116.994 56.5103C115.624 56.5103 114.456 57.0071 113.489 58.0007C112.549 58.9674 112.079 60.3101 112.079 62.0287C112.079 63.7473 112.549 65.1168 113.489 66.1372C114.456 67.1308 115.624 67.6276 116.994 67.6276C118.363 67.6276 119.518 67.1308 120.458 66.1372C121.424 65.1436 121.908 63.7875 121.908 62.0689Z" fill="#1C7ED6"/>
<path d="M88.148 73.5889C85.4895 73.5889 83.0459 72.9713 80.8171 71.7361C78.6151 70.5008 76.8562 68.7822 75.5404 66.5803C74.2515 64.3515 73.607 61.8541 73.607 59.0882C73.607 56.3224 74.2515 53.8385 75.5404 51.6365C76.8562 49.4345 78.6151 47.7159 80.8171 46.4807C83.0459 45.2455 85.4895 44.6278 88.148 44.6278C90.8064 44.6278 93.2366 45.2455 95.4386 46.4807C97.6674 47.7159 99.4129 49.4345 100.675 51.6365C101.964 53.8385 102.608 56.3224 102.608 59.0882C102.608 61.8541 101.964 64.3515 100.675 66.5803C99.386 68.7822 97.6406 70.5008 95.4386 71.7361C93.2366 72.9713 90.8064 73.5889 88.148 73.5889ZM88.148 67.3053C90.4036 67.3053 92.2028 66.5534 93.5455 65.0496C94.915 63.5459 95.5997 61.5587 95.5997 59.0882C95.5997 56.5909 94.915 54.6038 93.5455 53.1269C92.2028 51.6231 90.4036 50.8712 88.148 50.8712C85.8655 50.8712 84.0394 51.6096 82.6699 53.0866C81.3273 54.5635 80.6559 56.5641 80.6559 59.0882C80.6559 61.5856 81.3273 63.5862 82.6699 65.0899C84.0394 66.5669 85.8655 67.3053 88.148 67.3053Z" fill="#1C7ED6"/>
</svg>
